<svg width="10" height="15" viewBox="0 0 10 15" fill="none" xmlns="http://www.w3.org/2000/svg">
<path fill-rule="evenodd" clip-rule="evenodd" d="M5.00002 0.5C5.13263 0.5 5.25981 0.552678 5.35357 0.646447C5.44734 0.740215 5.50002 0.867392 5.50002 1V12.793L8.64602 9.646C8.73991 9.55211 8.86724 9.49937 9.00002 9.49937C9.1328 9.49937 9.26013 9.55211 9.35402 9.646C9.44791 9.73989 9.50065 9.86722 9.50065 10C9.50065 10.1328 9.44791 10.2601 9.35402 10.354L5.35402 14.354C5.30757 14.4006 5.2524 14.4375 5.19165 14.4627C5.13091 14.4879 5.06579 14.5009 5.00002 14.5009C4.93425 14.5009 4.86913 14.4879 4.80839 14.4627C4.74764 14.4375 4.69247 14.4006 4.64602 14.354L0.646021 10.354C0.552134 10.2601 0.49939 10.1328 0.49939 10C0.49939 9.86722 0.552134 9.73989 0.646021 9.646C0.739908 9.55211 0.867245 9.49937 1.00002 9.49937C1.1328 9.49937 1.26013 9.55211 1.35402 9.646L4.50002 12.793V1C4.50002 0.867392 4.5527 0.740215 4.64647 0.646447C4.74024 0.552678 4.86741 0.5 5.00002 0.5Z" fill="#424D79"/>
</svg>
